<svg width="52" height="48" viewBox="0 0 52 48" fill="none" xmlns="http://www.w3.org/2000/svg">
<path d="M14.9994 38.5431L15.6702 38.8785L15.8777 38.4636L15.599 38.0927L14.9994 38.5431ZM18.9988 42.5426L19.4493 41.9429L19.0783 41.6643L18.6634 41.8717L18.9988 42.5426ZM11 46.542L10.3291 46.2066C10.1848 46.4953 10.2414 46.8441 10.4696 47.0723C10.6979 47.3006 11.0466 47.3572 11.3354 47.2128L11 46.542ZM10.25 26.542C10.25 31.2129 11.7942 35.5253 14.3997 38.9936L15.599 38.0927C13.182 34.8752 11.75 30.8769 11.75 26.542H10.25ZM31 5.79199C19.5401 5.79199 10.25 15.0821 10.25 26.542H11.75C11.75 15.9105 20.3685 7.29199 31 7.29199V5.79199ZM51.75 26.542C51.75 15.0821 42.4599 5.79199 31 5.79199V7.29199C41.6314 7.29199 50.25 15.9105 50.25 26.542H51.75ZM31 47.292C42.4599 47.292 51.75 38.0019 51.75 26.542H50.25C50.25 37.1735 41.6314 45.792 31 45.792V47.292ZM18.5483 43.1422C22.0166 45.7477 26.329 47.292 31 47.292V45.792C26.665 45.792 22.6667 44.36 19.4493 41.9429L18.5483 43.1422ZM11.3354 47.2128L19.3342 43.2134L18.6634 41.8717L10.6645 45.8712L11.3354 47.2128ZM14.3286 38.2077L10.3291 46.2066L11.6708 46.8774L15.6702 38.8785L14.3286 38.2077Z" fill="black"/>
<path d="M16.2003 17.0675C17.3303 15.5632 18 13.6933 18 11.667C18 6.69643 13.9706 2.66699 8.99999 2.66699C4.02943 2.66699 0 6.69643 0 11.667C0 16.6376 4.02943 20.667 8.99999 20.667C11.0263 20.667 12.8962 19.9973 14.4005 18.8673L18 20.667L16.2003 17.0675Z" fill="#C59D5D"/>
<path d="M17.2003 14.9425L16.753 15.1661L16.6147 14.8895L16.8005 14.6422L17.2003 14.9425ZM15.4005 16.7423L15.1002 16.3425L15.3475 16.1567L15.6241 16.295L15.4005 16.7423ZM19 18.542L19.4472 18.3184C19.5435 18.5109 19.5057 18.7434 19.3536 18.8955C19.2014 19.0477 18.9689 19.0855 18.7764 18.9892L19 18.542ZM19.5 9.54199C19.5 11.6803 18.7929 13.6549 17.6 15.2428L16.8005 14.6422C17.8678 13.2215 18.5 11.4563 18.5 9.54199H19.5ZM9.99999 0.0419922C15.2467 0.0419922 19.5 4.29529 19.5 9.54199H18.5C18.5 4.84757 14.6944 1.04199 9.99999 1.04199V0.0419922ZM0.5 9.54199C0.5 4.29529 4.75329 0.0419922 9.99999 0.0419922V1.04199C5.30558 1.04199 1.5 4.84757 1.5 9.54199H0.5ZM9.99999 19.042C4.75329 19.042 0.5 14.7887 0.5 9.54199H1.5C1.5 14.2364 5.30558 18.042 9.99999 18.042V19.042ZM15.7008 17.142C14.1129 18.3349 12.1383 19.042 9.99999 19.042V18.042C11.9143 18.042 13.6795 17.4098 15.1002 16.3425L15.7008 17.142ZM18.7764 18.9892L15.1769 17.1895L15.6241 16.295L19.2236 18.0948L18.7764 18.9892ZM17.6475 14.7189L19.4472 18.3184L18.5528 18.7656L16.753 15.1661L17.6475 14.7189Z" fill="black"/>
</svg>
