<svg width="24" height="17" viewBox="0 0 24 17" fill="none" xmlns="http://www.w3.org/2000/svg">
<path fill-rule="evenodd" clip-rule="evenodd" d="M0 1C0 0.447715 0.447715 0 1 0H23C23.5523 0 24 0.447715 24 1C24 1.55228 23.5523 2 23 2H1C0.447715 2 0 1.55228 0 1ZM0 8.33333C0 7.78105 0.447715 7.33333 1 7.33333H23C23.5523 7.33333 24 7.78105 24 8.33333C24 8.88562 23.5523 9.33333 23 9.33333H1C0.447715 9.33333 0 8.88562 0 8.33333ZM0 15.6667C0 15.1144 0.447715 14.6667 1 14.6667H23C23.5523 14.6667 24 15.1144 24 15.6667C24 16.219 23.5523 16.6667 23 16.6667H1C0.447715 16.6667 0 16.219 0 15.6667Z" fill="black"/>
</svg>
