<svg width="101" height="28" viewBox="0 0 101 28" fill="none" xmlns="http://www.w3.org/2000/svg">
<g clip-path="url(#clip0)">
<path d="M14.0118 27.7901C13.642 27.7901 13.2927 27.6854 12.9435 27.4969C12.5942 27.3085 12.4298 27.0781 12.4298 26.8268C12.4298 26.1776 13.1284 23.0362 14.5049 17.3818L16.8265 7.95768C17.073 7.03621 17.1963 6.17757 17.1963 5.36082C17.1963 2.55453 15.7376 1.15139 12.8202 1.15139C12.3271 1.15139 11.8135 1.19328 11.2587 1.2561C8.23861 1.6959 5.91701 3.01527 4.29394 5.19328C2.85578 7.03621 2.15724 9.21422 2.15724 11.7064C2.15724 14.8268 3.16395 16.3975 5.17738 16.3975C6.7799 16.3975 8.77278 15.3503 11.156 13.2352C11.2998 13.1305 11.4026 13.0886 11.4847 13.0886C11.6491 13.0886 11.7313 13.1723 11.7313 13.3399C11.7313 13.4865 11.6491 13.6331 11.4847 13.7797C8.6906 16.2718 6.28682 17.5074 4.27339 17.5074C2.97905 17.5074 1.95179 17.0048 1.21216 16.0205C0.410903 14.9315 0 13.4655 0 11.6435C0 8.94197 1.02726 6.51265 3.06123 4.35558C5.38283 1.92626 8.32079 0.565005 11.8956 0.250869C12.06 0.229927 12.2244 0.208984 12.3682 0.208984C12.512 0.208984 12.6764 0.208984 12.8407 0.208984C14.9158 0.208984 16.4567 0.816314 17.5045 2.03097C18.4085 3.05715 18.8605 4.41841 18.8605 6.11474C18.8605 6.49171 18.8399 6.86867 18.7988 7.22469C18.7577 7.60166 18.6961 7.97862 18.5934 8.33464L16.7032 15.7273C15.6554 19.9158 14.8952 23.3503 14.4022 25.9891L15.3472 25.0676C16.0458 24.3556 17.2168 23.099 18.8194 21.298C20.4219 19.4969 22.4764 17.1723 24.9418 14.3242C26.8731 12.1462 28.5372 10.3032 29.9548 8.83726C31.3725 7.37129 32.5846 6.2404 33.5502 5.46553C35.9746 3.49694 37.6798 2.53359 38.666 2.53359C39.2823 2.53359 39.6522 3.07809 39.796 4.1671V4.27181C39.6932 3.89485 39.3851 3.70637 38.892 3.70637C38.2345 3.70637 37.31 4.06239 36.1184 4.75349C35.1528 5.29799 33.8173 6.40794 32.1326 8.10427C30.4479 9.80061 28.3729 12.0414 25.9485 14.8268C22.8257 18.4708 20.3397 21.3399 18.4496 23.4551C16.5594 25.5702 15.2856 26.9524 14.6076 27.6017C14.4638 27.7273 14.2789 27.7901 14.0118 27.7901Z" fill="#C49C5C"/>
<path d="M31.5983 24.5442C30.1807 24.23 29.4822 23.6436 29.4822 22.8269C29.4822 22.429 29.9547 21.0258 30.8998 18.6175C31.1669 18.1567 31.5161 17.4656 31.9681 16.5442C32.4201 15.6436 32.9749 14.5337 33.6734 13.2143C33.7967 13.0258 34.0637 12.9211 34.4747 12.9211C34.8445 12.9211 35.1937 12.984 35.543 13.0887C35.8923 13.1934 36.0361 13.2981 35.9539 13.4028C32.7489 18.0311 31.1463 21.2562 31.1463 23.0363C31.1463 23.5599 31.3107 23.8112 31.66 23.8112C32.3174 23.8112 33.3447 23.3505 34.7623 22.408C36.447 21.2353 37.8441 19.8321 38.9946 18.1986C39.2411 17.8007 39.4877 17.6122 39.7342 17.6122C39.8164 17.6122 39.8369 17.6541 39.8369 17.7169C39.8369 17.8426 39.7342 18.073 39.5082 18.429C38.4399 20.1463 36.9606 21.6541 35.0499 22.9735C33.3652 24.1672 32.2147 24.6908 31.5983 24.5442ZM37.1044 11.1201C36.7141 11.162 36.3032 11.1201 35.8512 10.9735C35.3992 10.8269 35.1732 10.6384 35.1732 10.408C35.1732 10.2614 35.2143 10.1149 35.317 9.94731C35.4197 9.77977 35.543 9.61223 35.6868 9.44469C36.0977 8.92113 36.3443 8.58606 36.4264 8.4604C36.5086 8.33475 36.6319 8.25098 36.8373 8.25098C37.3921 8.25098 37.8441 8.52323 38.1522 9.06773C38.1728 9.08867 38.1933 9.1515 38.1933 9.21433C38.1933 9.44469 38.0701 9.75883 37.8235 10.1777C37.4948 10.785 37.2482 11.0991 37.1044 11.1201Z" fill="#C49C5C"/>
<path d="M46.0211 24.5437C45.4869 24.5856 44.9733 24.4599 44.4802 24.1249C43.9871 23.7898 43.7406 23.4128 43.7406 22.994C43.7406 22.2191 44.4597 20.7531 45.8978 18.5751C47.4798 16.1668 48.2605 14.7846 48.2605 14.4076C48.2605 14.1772 48.1578 14.0516 47.9318 14.0306C47.2333 14.0725 46.1238 14.8055 44.6446 16.1877C42.5284 18.1982 40.5355 20.9207 38.707 24.3762C38.6659 24.4181 38.5221 24.4599 38.2961 24.4599C37.2483 24.4599 36.7758 24.3133 36.8785 24.0202C37.1456 23.3081 37.6181 22.2191 38.2756 20.7741C38.9536 19.3291 39.8165 17.528 40.8848 15.35C41.6244 13.884 42.3641 13.151 43.1037 13.151C43.3502 13.151 43.5146 13.2139 43.5762 13.3395C43.6173 13.4233 43.1037 14.4704 42.0353 16.5437C41.5217 17.528 41.1314 18.3238 40.8232 18.9102C40.5355 19.4966 40.3301 19.8736 40.2068 20.0411C40.6177 19.6222 41.1108 19.0987 41.6861 18.4704C42.2613 17.8421 42.9188 17.1301 43.679 16.3133C44.8706 14.9521 46.1855 13.9259 47.6236 13.2558C47.9729 13.1092 48.3632 13.0254 48.7947 13.0254C49.8014 13.0254 50.2945 13.4024 50.2945 14.1353C50.2945 14.617 50.0685 15.1615 49.596 15.8107C46.9662 19.5594 45.6513 22.0725 45.6513 23.3709C45.6513 23.6432 45.7335 23.8107 45.8978 23.8945C46.2882 24.062 47.2538 23.6641 48.7741 22.6589C50.5821 21.4652 52.1025 19.9992 53.3763 18.2401C53.6434 17.8631 53.8899 17.6746 54.1159 17.6746C54.1981 17.6746 54.2186 17.6955 54.2186 17.7584C54.2186 17.884 54.1159 18.1144 53.8899 18.4704C52.8215 20.1877 51.3423 21.6955 49.4316 23.0149C47.7674 24.1249 46.6169 24.6484 46.0211 24.5437Z" fill="#C49C5C"/>
<path d="M53.705 24.5442C52.2874 24.23 51.5889 23.6436 51.5889 22.8269C51.5889 22.429 52.0614 21.0258 53.0065 18.6175C53.2736 18.1567 53.6228 17.4656 54.0748 16.5442C54.5268 15.6436 55.0815 14.5337 55.7801 13.2143C55.9034 13.0258 56.1704 12.9211 56.5813 12.9211C56.9512 12.9211 57.3004 12.984 57.6497 13.0887C57.999 13.1934 58.1428 13.2981 58.0606 13.4028C54.8556 18.0311 53.253 21.2562 53.253 23.0363C53.253 23.5599 53.4174 23.8112 53.7667 23.8112C54.4241 23.8112 55.4514 23.3505 56.869 22.408C58.5537 21.2353 59.9508 19.8321 61.1013 18.1986C61.3478 17.8007 61.5944 17.6122 61.8409 17.6122C61.9231 17.6122 61.9436 17.6541 61.9436 17.7169C61.9436 17.8426 61.8409 18.073 61.6149 18.429C60.5466 20.1463 59.0673 21.6541 57.1566 22.9735C55.4719 24.1672 54.3214 24.6908 53.705 24.5442ZM59.2111 11.1201C58.8208 11.162 58.4099 11.1201 57.9579 10.9735C57.5059 10.8269 57.2799 10.6384 57.2799 10.408C57.2799 10.2614 57.321 10.1149 57.4237 9.94731C57.5264 9.77977 57.6497 9.61223 57.7935 9.44469C58.2044 8.92113 58.451 8.58606 58.5331 8.4604C58.6153 8.33475 58.7386 8.25098 58.944 8.25098C59.4988 8.25098 59.9508 8.52323 60.2589 9.06773C60.2795 9.08867 60.3 9.1515 60.3 9.21433C60.3 9.44469 60.1768 9.75883 59.9302 10.1777C59.6015 10.785 59.3755 11.0991 59.2111 11.1201Z" fill="#C49C5C"/>
<path d="M73.6339 24.5442C73.0997 24.586 72.5861 24.4604 72.093 24.1253C71.5999 23.7902 71.3534 23.4133 71.3534 22.9944C71.3534 22.2195 72.0725 20.7536 73.5106 18.5756C75.0926 16.1672 75.8733 14.785 75.8733 14.408C75.8733 14.1777 75.7706 14.052 75.5446 14.0311C74.8461 14.0729 73.8804 14.6593 72.6888 15.7483C70.8603 17.4656 69.0318 20.0415 67.1827 23.4761C67.1005 23.6017 66.8335 23.6646 66.3404 23.6646C65.8062 23.6646 65.5391 23.4342 65.5391 22.9944C65.5391 22.2195 66.2582 20.7536 67.6964 18.5756C69.2783 16.1672 70.059 14.785 70.059 14.408C70.059 14.1777 69.9563 14.052 69.7303 14.0311C69.0318 14.0729 67.9223 14.8059 66.4431 16.1881C64.3064 18.2195 62.3341 20.9211 60.5261 24.2928C60.5055 24.3347 60.4439 24.3766 60.3617 24.3976C60.2795 24.4185 60.1152 24.4394 59.9097 24.4394C58.9852 24.4394 58.5743 24.2928 58.677 23.9997C58.9441 23.2876 59.4167 22.1986 60.0741 20.7536C60.7521 19.3086 61.615 17.5075 62.6833 15.3295C63.423 13.8635 64.1626 13.1305 64.9022 13.1305C65.1488 13.1305 65.3131 13.1934 65.3748 13.319C65.4158 13.4028 64.9022 14.4499 63.8339 16.5232C63.3202 17.5075 62.9299 18.3033 62.6217 18.8897C62.3341 19.4761 62.1286 19.8531 62.0053 20.0206C62.4162 19.6017 62.9093 19.0782 63.4846 18.4499C64.0599 17.8216 64.7173 17.1096 65.4775 16.2928C66.6691 14.9316 67.984 13.9054 69.4221 13.2352C69.7098 13.1096 70.018 13.0468 70.3261 13.0468C71.3739 13.0468 71.8876 13.5075 71.8876 14.429C71.8876 14.9525 71.6821 15.5599 71.2712 16.2928C72.3806 14.9525 73.6955 13.9473 75.2159 13.2352C75.5652 13.0887 75.9555 13.0049 76.387 13.0049C77.3937 13.0049 77.8868 13.3818 77.8868 14.1148C77.8868 14.5965 77.6608 15.141 77.1882 15.7902C74.5584 19.5389 73.2435 22.052 73.2435 23.3504C73.2435 23.6227 73.3257 23.7902 73.4901 23.874C73.8599 24.0206 74.5584 23.7902 75.5651 23.2038C76.8595 22.429 78.0511 21.3609 79.14 19.9578C79.2838 19.7902 79.4276 19.7065 79.5715 19.7065C79.6742 19.7065 79.7153 19.7483 79.7153 19.8112C79.7153 19.9159 79.6331 20.0625 79.4893 20.251C78.2771 21.8426 77.0649 22.9944 75.8733 23.7483C74.9899 24.3766 74.2092 24.6489 73.6339 24.5442Z" fill="#C49C5C"/>
<path d="M82.2011 24.5866C80.4343 24.5866 79.5303 23.4766 79.5303 21.2358C79.5303 18.995 80.4137 16.8798 82.1601 14.8484C82.1806 14.8274 82.1806 14.7227 82.119 14.5761C82.0779 14.4086 82.0368 14.3039 82.0368 14.2201C82.0368 14.0735 82.0779 13.9688 82.1806 13.885C83.023 13.1939 84.0297 12.8379 85.1802 12.8379C85.4884 12.8379 85.7555 12.9007 85.9404 13.0264C86.1869 13.1311 86.4129 13.2149 86.6389 13.3196C86.8649 13.4243 87.0704 13.529 87.2553 13.6546C88.1798 14.2201 88.8167 14.8274 89.1865 15.4347C89.8029 15.4138 90.2959 15.3929 90.7274 15.351C91.1383 15.33 91.467 15.3091 91.6725 15.2672H91.8163C92.0423 15.2672 92.145 15.351 92.145 15.5185C92.145 15.5604 92.1039 15.6023 92.0012 15.6232C91.7341 15.6651 91.3848 15.7279 90.9534 15.8117C90.5219 15.8955 90.0083 15.9583 89.4125 16.0421C89.4947 16.2096 89.5152 16.419 89.5152 16.6285C89.5152 16.796 89.4947 16.9217 89.4741 17.0054C89.1043 19.0159 88.1387 20.7751 86.5978 22.2829C85.1186 23.8327 83.6393 24.5866 82.2011 24.5866ZM82.3244 24.0002C83.3928 24.0002 84.6255 23.2253 86.002 21.6546C87.4196 20.084 88.262 18.5761 88.5291 17.1101C88.5496 16.9845 88.5701 16.8798 88.5907 16.796C88.6112 16.7122 88.6112 16.6285 88.6112 16.5447C88.6112 16.3981 88.5907 16.2515 88.5291 16.1049C88.0565 16.1258 87.584 16.1468 87.1114 16.1468C86.6184 16.1468 86.1458 16.1468 85.6527 16.1468C85.1596 16.1468 84.7282 16.1468 84.3173 16.1468C83.9064 16.1468 83.5571 16.1258 83.2489 16.1049C82.2833 17.4452 81.667 18.5133 81.4204 19.351C81.1328 20.2724 80.989 21.152 80.989 21.9897C80.9684 23.33 81.4204 24.0002 82.3244 24.0002ZM88.3441 15.4347C87.9538 14.8065 87.1936 14.5133 86.0431 14.5133C85.1596 14.5133 84.6049 14.618 84.3378 14.8065C84.2557 14.8274 84.194 14.8902 84.1118 14.9531C84.0297 15.0368 83.9475 15.1206 83.8653 15.2044C85.2213 15.3929 86.7005 15.4557 88.3441 15.4347Z" fill="#C49C5C"/>
<path d="M91.1384 25.696C91.0357 25.696 90.9946 25.6541 90.9946 25.5913C90.9946 25.2771 91.8164 24.6698 93.4806 23.8112C93.8915 23.6227 94.2613 23.4133 94.6106 23.2038C94.9598 22.9944 95.2475 22.8059 95.494 22.6175C96.9733 21.5075 97.7129 20.5442 97.7129 19.7065C97.7129 19.0782 97.1171 18.785 95.9255 18.785C93.1519 18.7431 91.7753 18.1148 91.7753 16.9211C91.7753 16.3976 92.0013 15.8949 92.4328 15.4342C92.9464 14.8478 93.7888 14.2614 94.9804 13.7169C96.2747 13.1305 97.4458 12.8164 98.5142 12.8164C99.4592 12.8164 100.178 13.0468 100.671 13.5284C100.897 13.7588 101 14.0311 101 14.3452C101 14.7012 100.897 14.9944 100.671 15.2667C100.445 15.5389 100.199 15.6855 99.9318 15.6855C99.4387 15.6855 99.1716 15.3504 99.1305 14.6803C99.1305 14.2195 99.0483 13.9264 98.9045 13.8635C98.7607 13.7798 98.3703 13.7588 97.7334 13.7588C96.9322 13.7588 96.0282 14.0311 95.042 14.5756C93.8504 15.2038 93.2957 15.9368 93.3573 16.8164C93.3984 17.319 94.3229 17.5703 96.1309 17.5703C98.5963 17.5703 99.8085 18.1777 99.8085 19.3923C99.8085 20.7117 98.7402 22.0311 96.624 23.3295C95.2886 24.1672 93.6655 24.9211 91.7343 25.5703C91.5083 25.6541 91.3028 25.696 91.1384 25.696Z" fill="#C49C5C"/>
</g>
<defs>
<clipPath id="clip0">
<rect width="101" height="28" fill="white"/>
</clipPath>
</defs>
</svg>
