<svg width="115" height="31" viewBox="0 0 115 31" fill="none" xmlns="http://www.w3.org/2000/svg">
<path d="M15.954 30.8086C15.533 30.8086 15.1353 30.6916 14.7376 30.4811C14.3399 30.2705 14.1528 30.0132 14.1528 29.7325C14.1528 29.0073 14.9481 25.4984 16.5155 19.1823L19.1589 8.65541C19.4396 7.62612 19.5799 6.66701 19.5799 5.75468C19.5799 2.62002 17.919 1.05269 14.5972 1.05269C14.0358 1.05269 13.451 1.09947 12.8194 1.16965C9.38059 1.6609 6.73718 3.13466 4.88914 5.56753C3.25163 7.62612 2.45627 10.059 2.45627 12.8428C2.45627 16.3283 3.60252 18.0828 5.89504 18.0828C7.71969 18.0828 9.98881 16.9131 12.7024 14.5504C12.8662 14.4335 12.9831 14.3867 13.0767 14.3867C13.2638 14.3867 13.3574 14.4803 13.3574 14.6674C13.3574 14.8312 13.2638 14.9949 13.0767 15.1587C9.89524 17.9424 7.15826 19.3226 4.86574 19.3226C3.39199 19.3226 2.22234 18.7612 1.38019 17.6617C0.46786 16.4453 0 14.8078 0 12.7726C0 9.75488 1.16965 7.04129 3.48556 4.63181C6.12897 1.91823 9.47417 0.397681 13.5445 0.046786C13.7317 0.023393 13.9188 0 14.0826 0C14.2463 0 14.4335 0 14.6206 0C16.9833 0 18.7378 0.678397 19.9308 2.03519C20.9601 3.18145 21.4748 4.70199 21.4748 6.59683C21.4748 7.0179 21.4514 7.43897 21.4046 7.83666C21.3578 8.25773 21.2876 8.6788 21.1707 9.07648L19.0185 17.3342C17.8255 22.0128 16.9599 25.8493 16.3985 28.7968L17.4746 27.7675C18.2699 26.9721 19.6033 25.5686 21.428 23.5568C23.2526 21.545 25.5919 18.9483 28.3991 15.7669C30.598 13.334 32.4929 11.2754 34.107 9.63792C35.7211 8.00041 37.1013 6.73718 38.2008 5.87164C40.9611 3.6727 42.9028 2.59662 44.0256 2.59662C44.7274 2.59662 45.1485 3.20484 45.3122 4.42128V4.53824C45.1953 4.11717 44.8444 3.90663 44.283 3.90663C43.5344 3.90663 42.4817 4.30431 41.1249 5.07628C40.0254 5.6845 38.5049 6.92433 36.5867 8.81916C34.6684 10.714 32.3057 13.217 29.5454 16.3283C25.9896 20.3987 23.1591 23.6035 21.0069 25.9662C18.8548 28.3289 17.4044 29.8729 16.6324 30.598C16.4687 30.7384 16.2581 30.8086 15.954 30.8086Z" fill="black"/>
<path d="M35.9783 27.1832C34.3642 26.8323 33.5688 26.1773 33.5688 25.2649C33.5688 24.8205 34.1069 23.2531 35.183 20.5629C35.4871 20.0483 35.8848 19.2763 36.3994 18.247C36.914 17.2411 37.5457 16.0013 38.341 14.5275C38.4814 14.317 38.7855 14.2 39.2533 14.2C39.6744 14.2 40.0721 14.2702 40.4698 14.3872C40.8675 14.5041 41.0312 14.6211 40.9376 14.7381C37.2883 19.9079 35.4637 23.5105 35.4637 25.4989C35.4637 26.0837 35.6508 26.3644 36.0485 26.3644C36.7971 26.3644 37.9667 25.8498 39.5808 24.7971C41.4991 23.4871 43.0898 21.9197 44.3998 20.0951C44.6805 19.6506 44.9612 19.4401 45.242 19.4401C45.3355 19.4401 45.3589 19.4869 45.3589 19.557C45.3589 19.6974 45.242 19.9547 44.9846 20.3524C43.7682 22.2706 42.0839 23.9549 39.9084 25.4287C37.9901 26.7621 36.6801 27.3469 35.9783 27.1832ZM42.2477 12.1882C41.8032 12.235 41.3353 12.1882 40.8207 12.0245C40.306 11.8607 40.0487 11.6502 40.0487 11.3929C40.0487 11.2291 40.0955 11.0654 40.2125 10.8782C40.3294 10.6911 40.4698 10.5039 40.6335 10.3168C41.1014 9.73197 41.3821 9.35769 41.4757 9.21733C41.5693 9.07697 41.7096 8.9834 41.9435 8.9834C42.5752 8.9834 43.0898 9.28751 43.4407 9.89572C43.4641 9.91912 43.4875 9.9893 43.4875 10.0595C43.4875 10.3168 43.3471 10.6677 43.0664 11.1356C42.6921 11.814 42.4114 12.1648 42.2477 12.1882Z" fill="black"/>
<path d="M52.4004 27.1826C51.7922 27.2293 51.2074 27.089 50.6459 26.7147C50.0845 26.3404 49.8038 25.9193 49.8038 25.4515C49.8038 24.5859 50.6225 22.9484 52.26 20.5156C54.0613 17.8254 54.9502 16.2814 54.9502 15.8603C54.9502 15.603 54.8333 15.4627 54.576 15.4393C53.7806 15.4861 52.5174 16.3048 50.8331 17.8488C48.4236 20.0945 46.1545 23.1356 44.0725 26.9954C44.0257 27.0422 43.862 27.089 43.6046 27.089C42.4116 27.089 41.8736 26.9252 41.9905 26.5977C42.2946 25.8024 42.8327 24.5859 43.5812 22.9718C44.3532 21.3577 45.3357 19.3459 46.5522 16.913C47.3943 15.2755 48.2365 14.4568 49.0786 14.4568C49.3593 14.4568 49.5465 14.5269 49.6166 14.6673C49.6634 14.7609 49.0786 15.9305 47.8622 18.2464C47.2773 19.3459 46.8329 20.2348 46.482 20.8898C46.1545 21.5448 45.9205 21.9659 45.7802 22.1531C46.248 21.6852 46.8095 21.1004 47.4645 20.3986C48.1195 19.6968 48.8681 18.9014 49.7336 17.9891C51.0904 16.4686 52.5875 15.3223 54.2251 14.5737C54.6227 14.41 55.0672 14.3164 55.5585 14.3164C56.7047 14.3164 57.2661 14.7375 57.2661 15.5562C57.2661 16.0943 57.0088 16.7025 56.4708 17.4277C53.4765 21.615 51.9793 24.4222 51.9793 25.8725C51.9793 26.1767 52.0729 26.3638 52.26 26.4574C52.7045 26.6445 53.804 26.2001 55.5351 25.0772C57.5936 23.7438 59.3247 22.1063 60.7751 20.1413C61.0792 19.7202 61.3599 19.5097 61.6172 19.5097C61.7108 19.5097 61.7342 19.533 61.7342 19.6032C61.7342 19.7436 61.6172 20.0009 61.3599 20.3986C60.1435 22.3168 58.4592 24.0011 56.2836 25.4749C54.3888 26.7147 53.0788 27.2995 52.4004 27.1826Z" fill="black"/>
<path d="M61.1492 27.1832C59.5351 26.8323 58.7397 26.1773 58.7397 25.2649C58.7397 24.8205 59.2778 23.2531 60.3539 20.5629C60.658 20.0483 61.0557 19.2763 61.5703 18.247C62.0849 17.2411 62.7166 16.0013 63.5119 14.5275C63.6523 14.317 63.9564 14.2 64.4242 14.2C64.8453 14.2 65.243 14.2702 65.6407 14.3872C66.0384 14.5041 66.2021 14.6211 66.1085 14.7381C62.4592 19.9079 60.6346 23.5105 60.6346 25.4989C60.6346 26.0837 60.8217 26.3644 61.2194 26.3644C61.968 26.3644 63.1376 25.8498 64.7517 24.7971C66.67 23.4871 68.2607 21.9197 69.5707 20.0951C69.8514 19.6506 70.1321 19.4401 70.4129 19.4401C70.5064 19.4401 70.5298 19.4869 70.5298 19.557C70.5298 19.6974 70.4129 19.9547 70.1555 20.3524C68.9391 22.2706 67.2548 23.9549 65.0793 25.4287C63.161 26.7621 61.851 27.3469 61.1492 27.1832ZM67.4186 12.1882C66.9741 12.235 66.5062 12.1882 65.9916 12.0245C65.4769 11.8607 65.2196 11.6502 65.2196 11.3929C65.2196 11.2291 65.2664 11.0654 65.3834 10.8782C65.5003 10.6911 65.6407 10.5039 65.8044 10.3168C66.2723 9.73197 66.553 9.35769 66.6466 9.21733C66.7402 9.07697 66.8805 8.9834 67.1144 8.9834C67.746 8.9834 68.2607 9.28751 68.6116 9.89572C68.635 9.91912 68.6584 9.9893 68.6584 10.0595C68.6584 10.3168 68.518 10.6677 68.2373 11.1356C67.863 11.814 67.6057 12.1648 67.4186 12.1882Z" fill="black"/>
<path d="M83.8406 27.1825C83.2324 27.2293 82.6476 27.0889 82.0861 26.7147C81.5247 26.3404 81.244 25.9193 81.244 25.4514C81.244 24.5859 82.0627 22.9484 83.7003 20.5155C85.5015 17.8253 86.3905 16.2814 86.3905 15.8603C86.3905 15.603 86.2735 15.4626 86.0162 15.4392C85.2208 15.486 84.1213 16.141 82.7645 17.3575C80.6826 19.2757 78.6006 22.153 76.4952 25.9895C76.4016 26.1298 76.0975 26.2 75.5361 26.2C74.9279 26.2 74.6238 25.9427 74.6238 25.4514C74.6238 24.5859 75.4425 22.9484 77.08 20.5155C78.8813 17.8253 79.7702 16.2814 79.7702 15.8603C79.7702 15.603 79.6533 15.4626 79.3959 15.4392C78.6006 15.486 77.3374 16.3048 75.6531 17.8487C73.2202 20.1178 70.9745 23.1355 68.9159 26.9018C68.8925 26.9486 68.8223 26.9954 68.7287 27.0188C68.6352 27.0422 68.448 27.0655 68.2141 27.0655C67.1614 27.0655 66.6935 26.9018 66.8105 26.5743C67.1146 25.7789 67.6527 24.5625 68.4012 22.9484C69.1732 21.3343 70.1557 19.3225 71.3721 16.8896C72.2143 15.2521 73.0564 14.4333 73.8986 14.4333C74.1793 14.4333 74.3665 14.5035 74.4366 14.6439C74.4834 14.7374 73.8986 15.9071 72.6822 18.223C72.0973 19.3225 71.6529 20.2114 71.302 20.8664C70.9745 21.5214 70.7405 21.9425 70.6002 22.1296C71.068 21.6618 71.6295 21.0769 72.2845 20.3751C72.9395 19.6734 73.6881 18.878 74.5536 17.9657C75.9104 16.4451 77.4075 15.2989 79.0451 14.5503C79.3726 14.4099 79.7234 14.3398 80.0743 14.3398C81.2674 14.3398 81.8522 14.8544 81.8522 15.8837C81.8522 16.4685 81.6183 17.1469 81.1504 17.9657C82.4136 16.4685 83.9108 15.3457 85.6419 14.5503C86.0396 14.3865 86.484 14.293 86.9753 14.293C88.1215 14.293 88.683 14.714 88.683 15.5328C88.683 16.0708 88.4256 16.6791 87.8876 17.4042C84.8933 21.5916 83.3962 24.3987 83.3962 25.8491C83.3962 26.1532 83.4897 26.3404 83.6769 26.4339C84.0979 26.5977 84.8933 26.3404 86.0396 25.6854C87.5133 24.8198 88.8701 23.6268 90.1099 22.0594C90.2737 21.8723 90.4374 21.7787 90.6012 21.7787C90.7182 21.7787 90.7649 21.8255 90.7649 21.8957C90.7649 22.0127 90.6714 22.1764 90.5076 22.3869C89.1274 24.1648 87.7472 25.4514 86.3905 26.2936C85.3846 26.9954 84.4956 27.2995 83.8406 27.1825Z" fill="black"/>
<path d="M93.5955 27.2289C91.5837 27.2289 90.5544 25.9891 90.5544 23.4861C90.5544 20.983 91.5603 18.6203 93.5487 16.3512C93.5721 16.3278 93.5721 16.2108 93.502 16.0471C93.4552 15.8599 93.4084 15.743 93.4084 15.6494C93.4084 15.4857 93.4552 15.3687 93.5721 15.2751C94.5313 14.5032 95.6775 14.1055 96.9875 14.1055C97.3384 14.1055 97.6425 14.1756 97.8531 14.316C98.1338 14.433 98.3911 14.5265 98.6484 14.6435C98.9057 14.7605 99.1397 14.8774 99.3502 15.0178C100.403 15.6494 101.128 16.3278 101.549 17.0062C102.251 16.9828 102.812 16.9594 103.304 16.9126C103.771 16.8892 104.146 16.8658 104.38 16.8191H104.543C104.801 16.8191 104.918 16.9126 104.918 17.0998C104.918 17.1466 104.871 17.1933 104.754 17.2167C104.45 17.2635 104.052 17.3337 103.561 17.4273C103.07 17.5208 102.485 17.591 101.806 17.6846C101.9 17.8717 101.923 18.1057 101.923 18.3396C101.923 18.5267 101.9 18.6671 101.877 18.7607C101.456 21.0064 100.356 22.9714 98.6016 24.6557C96.9173 26.3868 95.233 27.2289 93.5955 27.2289ZM93.7359 26.5739C94.9523 26.5739 96.3559 25.7084 97.9232 23.9539C99.5374 22.1994 100.496 20.5152 100.801 18.8776C100.824 18.7373 100.847 18.6203 100.871 18.5267C100.894 18.4332 100.894 18.3396 100.894 18.246C100.894 18.0823 100.871 17.9185 100.801 17.7548C100.263 17.7782 99.7245 17.8016 99.1865 17.8016C98.625 17.8016 98.087 17.8016 97.5256 17.8016C96.9641 17.8016 96.4729 17.8016 96.005 17.8016C95.5371 17.8016 95.1395 17.7782 94.7886 17.7548C93.6891 19.2519 92.9873 20.445 92.7066 21.3807C92.3791 22.41 92.2153 23.3925 92.2153 24.3282C92.192 25.8254 92.7066 26.5739 93.7359 26.5739ZM100.59 17.0062C100.146 16.3044 99.28 15.9769 97.97 15.9769C96.9641 15.9769 96.3325 16.0939 96.0284 16.3044C95.9348 16.3278 95.8647 16.398 95.7711 16.4682C95.6775 16.5617 95.5839 16.6553 95.4904 16.7489C97.0343 16.9594 98.7186 17.0296 100.59 17.0062Z" fill="black"/>
<path d="M103.771 28.4697C103.654 28.4697 103.608 28.4229 103.608 28.3527C103.608 28.0018 104.543 27.3234 106.438 26.3643C106.906 26.1538 107.327 25.9199 107.725 25.6859C108.123 25.452 108.45 25.2415 108.731 25.0309C110.415 23.7911 111.257 22.715 111.257 21.7793C111.257 21.0775 110.579 20.75 109.222 20.75C106.064 20.7032 104.497 20.0014 104.497 18.668C104.497 18.0832 104.754 17.5218 105.245 17.0071C105.83 16.3521 106.789 15.6971 108.146 15.0889C109.62 14.4339 110.953 14.083 112.17 14.083C113.246 14.083 114.064 14.3403 114.626 14.8784C114.883 15.1357 115 15.4398 115 15.7907C115 16.1884 114.883 16.5159 114.626 16.82C114.368 17.1241 114.088 17.2878 113.784 17.2878C113.222 17.2878 112.918 16.9136 112.871 16.165C112.871 15.6503 112.778 15.3228 112.614 15.2527C112.45 15.1591 112.006 15.1357 111.281 15.1357C110.368 15.1357 109.339 15.4398 108.216 16.048C106.859 16.7498 106.228 17.5686 106.298 18.5511C106.345 19.1125 107.397 19.3932 109.456 19.3932C112.263 19.3932 113.643 20.0716 113.643 21.4284C113.643 22.9022 112.427 24.3759 110.017 25.8263C108.497 26.762 106.649 27.6042 104.45 28.3293C104.192 28.4229 103.959 28.4697 103.771 28.4697Z" fill="black"/>
</svg>
