<svg width="60" height="54" viewBox="0 0 60 54" fill="none" xmlns="http://www.w3.org/2000/svg">
<path d="M59 8H11V13H59V8Z" fill="black"/>
<path d="M46 53H4C2.3 53 1 51.7 1 50V22C1 20.3 2.3 19 4 19H46C47.7 19 49 20.3 49 22V50C49 51.7 47.7 53 46 53Z" stroke="black" stroke-width="1.75" stroke-miterlimit="10" stroke-linecap="round"/>
<path d="M41 31H37C35.9 31 35 30.1 35 29V27C35 25.9 35.9 25 37 25H41C42.1 25 43 25.9 43 27V29C43 30.1 42.1 31 41 31Z" stroke="black" stroke-width="1.75" stroke-miterlimit="10" stroke-linecap="round"/>
<path d="M8 47H32" stroke="black" stroke-width="1.75" stroke-miterlimit="10" stroke-linecap="round"/>
<path d="M8 41H22" stroke="black" stroke-width="1.75" stroke-miterlimit="10" stroke-linecap="round"/>
<path d="M11 8H59" stroke="black" stroke-width="2" stroke-miterlimit="10" stroke-linecap="round"/>
<path d="M11 13H59" stroke="black" stroke-width="2" stroke-miterlimit="10" stroke-linecap="round"/>
<path d="M11 15V12V7V4C11 2.3 12.3 1 14 1H56C57.7 1 59 2.3 59 4V7V12V32C59 33.7 57.7 35 56 35H53" stroke="black" stroke-width="1.75" stroke-miterlimit="10" stroke-linecap="round"/>
</svg>
